<svg width="73" height="53" viewBox="0 0 73 53" fill="none" xmlns="http://www.w3.org/2000/svg">
<path d="M52.6707 22.555V23.3763C52.6707 24.3828 52.833 25.3826 53.1512 26.3373L55.0116 31.9186H58.523V19.0435H56.1821C54.2428 19.0436 52.6707 20.6156 52.6707 22.555Z" fill="#5A4146"/>
<path d="M68.6969 24.9864L66.7162 31.9187L57.3525 23.7255C56.0596 23.7255 55.0116 22.6774 55.0116 21.3846C55.0116 19.4454 56.5837 17.8733 58.523 17.8733H66.7161C68.009 17.8733 69.057 18.9214 69.057 20.2142V22.4142C69.0571 23.284 68.9358 24.1498 68.6969 24.9864Z" fill="#694B4B"/>
<path d="M64.3745 35.4309H57.3518V40.6112H64.3745V35.4309Z" fill="#E6AF78"/>
<path d="M57.3525 37.5799C58.4381 38.021 59.6218 38.2693 60.8639 38.2693C62.1059 38.2693 63.2897 38.021 64.3752 37.5799V35.4299H57.3525V37.5799Z" fill="#D29B6E"/>
<path d="M70.0217 39.8829L64.3749 38.2697L60.8639 40.5997L57.3525 38.2695L51.7061 39.8829C50.1986 40.3136 49.1594 41.6914 49.1594 43.2592V51.8166C49.1594 52.4631 49.6834 52.987 50.3298 52.987H71.3981C72.0445 52.987 72.5685 52.4631 72.5685 51.8166V43.2592C72.5685 41.6913 71.5292 40.3136 70.0217 39.8829Z" fill="#D5DCED"/>
<path d="M62.0343 52.9871H59.6934L60.2786 40.6106H61.4491L62.0343 52.9871Z" fill="#AFB9D2"/>
<path d="M60.8639 36.6007C56.9853 36.6007 53.8412 33.4565 53.8412 29.578V28.2067C53.8412 27.5859 54.0878 26.9905 54.5267 26.5514L56.6492 24.4289C57.0987 23.9795 57.7132 23.7211 58.3485 23.7411C62.09 23.8591 65.4018 24.6606 67.2122 26.4288C67.6554 26.8617 67.8867 27.4672 67.8867 28.0865V29.578C67.8867 33.4566 64.7424 36.6007 60.8639 36.6007Z" fill="#F0C087"/>
<path d="M57.3525 28.4969C57.3525 27.1467 58.4864 26.0735 59.8339 26.1594C62.1967 26.3102 65.703 26.7051 67.8541 27.7397C67.7839 27.2459 67.5718 26.7798 67.2122 26.4286C65.4018 24.6604 62.09 23.8589 58.3485 23.7408L58.3483 23.741V23.7408C57.7132 23.7208 57.0985 23.9794 56.6492 24.4287L54.5269 26.551C54.0878 26.99 53.8412 27.5854 53.8412 28.2063V29.5776C53.8412 32.7803 55.9872 35.4768 58.9181 36.3213C57.9426 35.1176 57.3526 33.5897 57.3526 31.9185L57.3525 28.4969Z" fill="#E6AF78"/>
<path d="M67.8867 46.7468C67.8867 45.8154 68.2566 44.9223 68.9152 44.2638L71.928 41.251C72.3307 41.8266 72.5685 42.5195 72.5685 43.2592V51.8166C72.5685 52.4631 72.0445 52.9871 71.3981 52.9871H67.8867V46.7468Z" fill="#C7CFE2"/>
<path d="M61.4491 42.9515H60.2786C59.9555 42.9515 59.6934 42.6894 59.6934 42.3663V40.6106H62.0343V42.3663C62.0343 42.6894 61.7724 42.9515 61.4491 42.9515Z" fill="#959CB5"/>
<path d="M60.8638 40.5998L58.88 42.1151C58.5382 42.3762 58.0442 42.2716 57.8376 41.8943L56.058 38.6443L56.7743 37.5516C56.9332 37.3093 57.2718 37.268 57.4843 37.465L60.8638 40.5998Z" fill="#C7CFE2"/>
<path d="M60.8639 40.5996L62.8477 42.1151C63.1895 42.3762 63.6835 42.2716 63.8901 41.8943L65.6697 38.6443L64.9534 37.5516C64.7945 37.3093 64.4559 37.268 64.2434 37.465L60.8639 40.5996Z" fill="#C7CFE2"/>
<path d="M20.9516 36.1119C19.9514 33.4617 19.1581 28.9059 18.9867 26.534C18.6607 22.0203 15.2592 18.3408 10.661 18.3408C6.06286 18.3408 2.66136 22.0204 2.33537 26.534C2.16401 28.9058 1.37071 33.4617 0.370488 36.1119C0.150089 36.6961 0.404504 37.3403 0.979808 37.6011C2.05161 38.0868 4.33681 39.0384 7.09285 39.4091H14.2291C16.9722 39.0376 19.2735 38.0854 20.3421 37.6011C20.9176 37.3403 21.172 36.6961 20.9516 36.1119Z" fill="#5A4146"/>
<path d="M20.3423 37.6013C20.9174 37.3405 21.172 36.6964 20.9514 36.1121C19.9514 33.462 19.1579 28.9062 18.9867 26.5342C18.6609 22.0205 15.2592 18.3411 10.6612 18.3411C10.6495 18.3411 10.6381 18.3411 10.6264 18.3412C7.09823 18.3555 5.85138 23.1673 8.88863 24.9627C9.07104 25.0705 9.18797 25.1224 9.18797 25.1224L11.8482 39.4093H14.2292C16.9724 39.0375 19.2736 38.0855 20.3423 37.6013Z" fill="#694B4B"/>
<path d="M19.1272 41.759L15.3395 39.8653C14.5463 39.4687 14.0453 38.658 14.0454 37.7713L14.0457 34.2598H7.0227V37.7714C7.0227 38.6581 6.52181 39.4685 5.72866 39.8651L1.94092 41.759C0.751339 42.3537 0 43.5695 0 44.8994V51.8164C0 52.4627 0.523996 52.9868 1.17045 52.9868H19.8978C20.5443 52.9868 21.0683 52.4627 21.0683 51.8164V44.8996C21.0683 43.5695 20.3168 42.3537 19.1272 41.759Z" fill="#E6AF78"/>
<path d="M10.5342 38.9416C11.7945 38.9416 13.0017 38.6818 14.1084 38.2193C14.0793 38.0717 14.0454 37.925 14.0454 37.7713L14.0457 34.2598H7.02272V37.7714C7.02272 37.926 6.98884 38.0734 6.9595 38.2216C8.06688 38.6816 9.27347 38.9416 10.5342 38.9416Z" fill="#D29B6E"/>
<path d="M19.1272 41.759L16.4288 40.4098C15.1776 42.3419 13.0075 43.6234 10.5342 43.6234C8.06092 43.6234 5.89066 42.3419 4.63942 40.4097L1.94107 41.759C0.751481 42.3537 0 43.5695 0 44.8994V51.8164C0 52.4628 0.523996 52.9868 1.17045 52.9868H19.8978C20.5443 52.9868 21.0683 52.4628 21.0683 51.8164V44.8996C21.0683 43.5695 20.3168 42.3537 19.1272 41.759Z" fill="#D5DCED"/>
<path d="M10.5342 36.6007C6.96357 36.6007 4.01548 33.9361 3.56972 30.487C3.50509 29.9872 3.74533 29.4972 4.1952 29.2703C4.73407 28.9985 5.51716 28.5401 6.26694 27.8711C7.10191 27.1261 7.59174 26.3405 7.86841 25.7638C8.10667 25.2671 8.65433 24.9862 9.18811 25.1224C13.3092 26.1735 16.1149 28.3176 17.1328 29.1929C17.4061 29.4279 17.5635 29.7745 17.5355 30.1339C17.2519 33.7524 14.2257 36.6007 10.5342 36.6007Z" fill="#F0C087"/>
<path d="M17.1327 29.1929C16.1149 28.3176 13.3091 26.1735 9.18799 25.1224C8.65422 24.9862 8.10655 25.2671 7.86829 25.7638C7.65881 26.2006 7.31255 26.7571 6.79876 27.3251C6.79862 27.3266 6.79819 27.3277 6.79805 27.3291C6.6386 27.5098 6.4688 27.691 6.26697 27.8712C5.51719 28.5404 4.7341 28.9986 4.19522 29.2705C3.74535 29.4974 3.50525 29.9875 3.56974 30.4873C3.97015 33.5849 6.3941 36.0505 9.46948 36.5208C8.06814 35.5675 7.02284 34.2564 7.02284 31.9192V30.2501C7.28874 30.0538 7.55648 29.8581 7.82549 29.618C8.47606 29.0374 9.04399 28.366 9.49938 27.6432C12.652 28.627 14.7894 30.2656 15.5997 30.9624C15.8215 31.1568 16.372 31.6642 17.016 32.2684C17.2931 31.6016 17.4764 30.8861 17.5352 30.1342C17.5634 29.7746 17.4059 29.4281 17.1327 29.1929Z" fill="#E6AF78"/>
<path d="M0.713496 42.7898C0.262636 43.3882 0 44.1222 0 44.8997V51.8166C0 52.4631 0.523996 52.9871 1.17045 52.9871H4.6818V47.0895C4.6818 46.3784 4.3585 45.7057 3.80319 45.2615L0.713496 42.7898Z" fill="#C7CFE2"/>
<path d="M53.1002 40.1616L43.307 36.6003L36.2843 38.9414L29.2615 36.6005L19.4683 40.1617C17.6181 40.8345 16.3864 42.5929 16.3864 44.5616V51.8165C16.3864 52.4628 16.9104 52.9869 17.5569 52.9869H55.0116C55.6581 52.9869 56.1821 52.4628 56.1821 51.8165V44.5616C56.1821 42.5928 54.9505 40.8344 53.1002 40.1616Z" fill="#FF507D"/>
<path d="M35.0581 41.2827L33.9434 52.9871H38.6252L37.5104 41.2827H35.0581Z" fill="#707487"/>
<path d="M37.5131 42.8907H35.0554C34.6029 42.8907 34.2361 42.5239 34.2361 42.0713V38.9417H38.3323V42.0713C38.3325 42.5237 37.9657 42.8907 37.5131 42.8907Z" fill="#5B5D6E"/>
<path d="M54.9222 41.3718C55.7125 42.2201 56.1821 43.3499 56.1821 44.5617V51.8166C56.1821 52.463 55.6581 52.987 55.0116 52.987H49.1594V49.074C49.1594 47.8323 49.6526 46.6414 50.5307 45.7635L54.9222 41.3718Z" fill="#D23C69"/>
<path d="M49.1593 12.4626V2.65731C49.1593 1.3644 48.1112 0.316406 46.8184 0.316406H32.7729C27.6015 0.316406 23.4091 4.50865 23.4091 9.68015V12.4626C23.4091 13.7206 23.612 14.9704 24.0098 16.1638L24.3995 17.3327C24.5188 17.6908 24.5796 18.0656 24.5796 18.4431V19.0438H47.9888V18.4431C47.9888 18.0656 48.0496 17.6908 48.1689 17.3327L48.5585 16.1638C48.9565 14.9703 49.1593 13.7205 49.1593 12.4626Z" fill="#5A4146"/>
<path d="M29.2616 5.07134C29.2616 7.69742 31.3904 9.82628 34.0165 9.82628H34.6749L34.9926 19.0436H47.9888V18.4429C47.9888 18.0655 48.0496 17.6906 48.1689 17.3326L48.5586 16.1637C48.9564 14.9703 49.1592 13.7205 49.1592 12.4624V2.65731C49.1592 1.3644 48.1111 0.316406 46.8183 0.316406H34.0165C31.3904 0.316406 29.2616 2.44527 29.2616 5.07134Z" fill="#694B4B"/>
<path d="M43.3072 28.408H29.2613V38.9417H43.3072V28.408Z" fill="#E6AF78"/>
<path d="M29.2615 32.3653C31.3292 33.5631 33.7229 34.2597 36.2842 34.2597C38.8455 34.2597 41.2394 33.5631 43.3069 32.3653V28.4075H29.2614L29.2615 32.3653Z" fill="#D29B6E"/>
<path d="M36.2843 38.9416L32.5512 42.6746C32.0495 43.1764 31.2202 43.1198 30.7913 42.5546L26.9207 37.4544L27.9331 35.3208C28.2318 34.6913 29.0111 34.4605 29.6044 34.8262L36.2843 38.9416Z" fill="#D23C69"/>
<path d="M36.2842 38.9416L40.0173 42.6746C40.519 43.1764 41.3483 43.1198 41.7772 42.5546L45.6478 37.4544L44.6354 35.3208C44.3367 34.6913 43.5574 34.4605 42.9641 34.8262L36.2842 38.9416Z" fill="#D23C69"/>
<path d="M36.2843 31.9189C29.82 31.9189 24.5796 26.6786 24.5796 20.2143V18.843C24.5796 18.2222 24.8262 17.6268 25.2652 17.1877L26.2348 16.2181C26.6738 15.7791 26.9204 15.1837 26.9204 14.5627V11.7569C26.9204 11.2149 27.2844 10.7441 27.8118 10.6195C30.58 9.96569 39.1942 8.41695 45.0566 12.7285C45.4373 13.0085 45.6477 13.4684 45.6477 13.9409V14.5627C45.6477 15.1835 45.8943 15.779 46.3333 16.2181L47.3029 17.1877C47.7419 17.6266 47.9885 18.2221 47.9885 18.843V20.2143C47.9889 26.6786 42.7485 31.9189 36.2843 31.9189Z" fill="#F0C087"/>
<path d="M45.0567 12.7285C40.9336 9.6961 35.4568 9.56485 31.6025 9.97999C29.9766 10.155 28.6333 10.4256 27.812 10.6195C27.2846 10.7441 26.9207 11.2149 26.9207 11.7569V14.5626C26.9207 15.1835 26.674 15.779 26.2349 16.2181L25.2653 17.1877C24.8262 17.6268 24.5796 18.2222 24.5796 18.8431V20.2143C24.5796 26.1989 29.074 31.1258 34.8699 31.8252C32.8503 29.722 31.6023 26.8719 31.6023 23.7256V15.1703C31.6023 13.9842 32.4843 12.9929 33.6612 12.8453C36.4701 12.4931 41.6148 12.2814 45.6477 14.5629V13.9409C45.648 13.4684 45.4371 13.0083 45.0567 12.7285Z" fill="#E6AF78"/>
<path d="M17.6463 41.3718C16.856 42.2201 16.3864 43.3499 16.3864 44.5617V51.8166C16.3864 52.463 16.9104 52.987 17.5569 52.987H23.4091V49.074C23.4091 47.8323 22.9159 46.6414 22.0379 45.7635L17.6463 41.3718Z" fill="#D23C69"/>
</svg>
