<svg width="74" height="74" viewBox="0 0 74 74" fill="none" xmlns="http://www.w3.org/2000/svg">
<path d="M12.3307 64.7503H41.9924C43.7717 64.7512 45.5301 64.3667 47.1466 63.6231C48.7631 62.8795 50.1994 61.7946 51.3565 60.4429L67.0876 42.0909C67.4171 41.7073 67.6471 41.2485 67.7574 40.755C67.8678 40.2616 67.855 39.7486 67.7204 39.2612C67.5858 38.7738 67.3333 38.327 66.9853 37.9601C66.6373 37.5933 66.2044 37.3177 65.7248 37.1575L59.6568 35.1349C58.1902 34.6582 56.6288 34.5503 55.1106 34.8208C53.5924 35.0913 52.1642 35.7319 50.9526 36.6858L41.1321 44.539L39.2297 40.7311C38.2105 38.6785 36.6369 36.9522 34.6872 35.7479C32.7374 34.5436 30.4893 33.9093 28.1976 33.917H12.3307C8.92981 33.917 6.16406 36.6827 6.16406 40.0836V58.5836C6.16406 61.9845 8.92981 64.7503 12.3307 64.7503ZM12.3307 40.0836H28.1976C30.5501 40.0836 32.6622 41.3879 33.7136 43.4907L35.0919 46.2503H21.5807V52.417H40.1239C40.5983 52.4107 41.0647 52.2946 41.4867 52.0778L41.496 52.0747L41.5083 52.0685H41.5176L41.5237 52.0655H41.5361L41.5391 52.0624C41.5669 52.0716 41.5484 52.0593 41.5484 52.0593C41.5792 52.0593 41.5546 52.0562 41.5546 52.0562H41.5576L41.5638 52.0531L41.5731 52.05L41.5792 52.047L41.5854 52.0439L41.5946 52.0408L41.6008 52.0377C41.6101 52.0377 41.6039 52.0346 41.607 52.0346L41.6162 52.0285L41.6224 52.0254L41.6286 52.0223L41.6378 52.0192L41.644 52.0161H41.6471L41.6532 52.013H41.6563L41.6625 52.01L41.6686 52.0069C41.6964 52.0038 41.6779 52.0038 41.6779 52.0038L41.6841 52.0007C41.8029 51.929 41.9162 51.8486 42.0232 51.7602L54.8067 41.5328C55.6146 40.8915 56.7276 40.691 57.7051 41.0179L59.4225 41.5914L46.6791 56.4623C46.0929 57.1279 45.3719 57.6612 44.5639 58.027C43.7559 58.3927 42.8793 58.5825 41.9924 58.5836H12.3307V40.0836ZM49.3307 6.16696H49.2783C48.7757 6.17313 46.1765 6.28721 43.1641 8.34071C40.2318 6.34271 37.6942 6.18238 37.0961 6.17004L37.0036 6.16696H36.9912C34.5215 6.16696 32.1966 7.13204 30.4576 8.87413C28.7125 10.6224 27.7474 12.9441 27.7474 15.417C27.7474 17.8898 28.7125 20.2115 30.4021 21.9043L40.9286 32.9611C41.2183 33.2618 41.5656 33.5009 41.9498 33.6641C42.334 33.8273 42.7473 33.9113 43.1647 33.911C43.5822 33.9107 43.9953 33.8262 44.3793 33.6624C44.7633 33.4987 45.1103 33.2591 45.3995 32.958L55.8705 21.9567C57.6187 20.2115 58.5807 17.8898 58.5807 15.417C58.5807 12.9441 57.6156 10.6224 55.8736 8.87721C55.0174 8.01556 53.9988 7.33233 52.8768 6.86711C51.7548 6.40188 50.5516 6.16391 49.3369 6.16696H49.3307ZM52.4141 15.417C52.4141 16.2402 52.0934 17.0141 51.4551 17.6524L43.1641 26.3628L34.8175 17.5969C34.2347 17.0141 33.9141 16.2402 33.9141 15.417C33.9141 14.5937 34.2347 13.8198 34.8206 13.234C35.3781 12.6668 36.1374 12.3432 36.9326 12.3336C37.0097 12.3367 38.4805 12.4323 40.2226 13.829C40.4723 14.0295 40.7251 14.2576 40.9841 14.5135L43.1641 16.6935L45.344 14.5135C45.603 14.2576 45.8558 14.0295 46.1056 13.829C47.7366 12.5186 49.1149 12.3552 49.3492 12.3367C49.7511 12.3366 50.149 12.4162 50.52 12.5707C50.891 12.7252 51.2277 12.9517 51.5106 13.237C52.0934 13.8198 52.4141 14.5937 52.4141 15.417Z" fill="#950195"/>
</svg>
