<svg width="68" height="68" viewBox="0 0 68 68" fill="none" xmlns="http://www.w3.org/2000/svg">
<path d="M33.9933 0.660034C38.0067 0.660034 41.8533 1.37003 45.4167 2.6667L41.4333 6.6467C35.405 5.0075 29.004 5.4061 23.2257 7.78052C17.4474 10.1549 12.6155 14.3721 9.48144 19.7763C6.3474 25.1804 5.08682 31.4687 5.89574 37.6633C6.70465 43.8579 9.53771 49.6116 13.9544 54.0298C18.3711 58.4479 24.1238 61.2829 30.3182 62.0939C36.5125 62.9049 42.8012 61.6464 48.2064 58.5142C53.6116 55.382 57.8304 50.5515 60.2067 44.7739C62.5831 38.9964 62.9838 32.5955 61.3467 26.5667L65.3267 22.5867C66.6579 26.2445 67.337 30.1075 67.3333 34C67.3333 52.4134 52.4067 67.34 33.9933 67.34C15.58 67.34 0.65332 52.4134 0.65332 34C0.65332 15.5867 15.58 0.660034 33.9933 0.660034ZM33.9933 14C35.6822 13.9993 37.3645 14.2121 39 14.6334V19.8567C35.7925 18.7219 32.2945 18.7113 29.0801 19.8266C25.8658 20.9419 23.1261 23.1168 21.3107 25.9943C19.4953 28.8719 18.7121 32.2811 19.0897 35.6624C19.4673 39.0437 20.9832 42.1962 23.3885 44.6025C25.7939 47.0087 28.9459 48.5257 32.327 48.9045C35.7082 49.2833 39.1177 48.5014 41.9959 46.6871C44.8741 44.8728 47.05 42.1339 48.1665 38.9199C49.2829 35.706 49.2736 32.208 48.14 29H53.3633C54.4061 33.0387 54.1601 37.3024 52.6596 41.1944C51.1592 45.0863 48.4795 48.4117 44.9955 50.7052C41.5115 52.9988 37.3976 54.1456 33.2295 53.9852C29.0614 53.8249 25.0478 52.3654 21.7503 49.8109C18.4528 47.2565 16.0365 43.735 14.8396 39.7393C13.6426 35.7436 13.7249 31.4736 15.0749 27.527C16.4249 23.5803 18.9751 20.1545 22.3685 17.729C25.762 15.3035 29.8288 13.9997 34 14H33.9933ZM40.66 34C40.6595 35.4329 40.1974 36.8275 39.3422 37.9771C38.4869 39.1268 37.284 39.9702 35.9118 40.3826C34.5395 40.7949 33.0709 40.7541 31.7236 40.2663C30.3764 39.7785 29.2221 38.8696 28.432 37.6743C27.6418 36.4789 27.2578 35.0609 27.3368 33.6302C27.4158 32.1995 27.9537 30.8323 28.8707 29.7313C29.7877 28.6303 31.0351 27.8541 32.4279 27.5176C33.8207 27.1812 35.2848 27.3024 36.6033 27.8634L42.3367 22.13L42.3333 11.5C42.3339 10.8372 42.5977 10.2018 43.0667 9.73337L51.4 1.40003C51.7496 1.05085 52.1949 0.813098 52.6795 0.716816C53.1642 0.620535 53.6665 0.67004 54.1231 0.859078C54.5796 1.04812 54.9699 1.36821 55.2446 1.77893C55.5194 2.18964 55.6662 2.67257 55.6667 3.1667V12.3334H64.8333C65.3275 12.3338 65.8104 12.4807 66.2211 12.7554C66.6318 13.0301 66.9519 13.4204 67.1409 13.877C67.33 14.3335 67.3795 14.8358 67.2832 15.3205C67.1869 15.8052 66.9492 16.2504 66.6 16.6L58.2667 24.9334C57.7983 25.4023 57.1628 25.6661 56.5 25.6667H45.8667L40.1333 31.4C40.4733 32.2 40.66 33.0767 40.66 34ZM55.4633 20.6667L58.7966 17.3334H53.1633C52.5003 17.3334 51.8644 17.07 51.3955 16.6011C50.9267 16.1323 50.6633 15.4964 50.6633 14.8334V9.20003L47.3333 12.5334V20.47C47.4028 20.5327 47.4685 20.5995 47.53 20.67H55.4633V20.6667Z" fill="#950195"/>
</svg>
