<svg width="21" height="21" viewBox="0 0 21 21" fill="none" xmlns="http://www.w3.org/2000/svg">
<path fill-rule="evenodd" clip-rule="evenodd" d="M10.6414 0.600098C9.02161 0.605177 7.45706 1.18938 6.23037 2.24717C5.29023 3.05721 4.60907 4.11271 4.43356 5.1719C2.37655 5.62601 0.822754 7.41791 0.822754 9.58169C0.822754 12.0953 2.91903 14.1007 5.46329 14.1007H10.0277V7.35041C10.0277 7.18766 10.0924 7.03157 10.2075 6.91648C10.3225 6.8014 10.4786 6.73674 10.6414 6.73674C10.8041 6.73674 10.9602 6.8014 11.0753 6.91648C11.1904 7.03157 11.2551 7.18766 11.2551 7.35041V14.1007H16.3951C18.6215 14.1007 20.46 12.3456 20.46 10.1401C20.46 8.13222 18.9357 6.49619 16.9818 6.22004C16.6835 3.05353 13.9429 0.600098 10.6414 0.600098ZM10.2069 20.0582C10.2639 20.1153 10.3316 20.1607 10.4062 20.1916C10.4807 20.2225 10.5607 20.2385 10.6414 20.2385C10.7221 20.2385 10.802 20.2225 10.8766 20.1916C10.9511 20.1607 11.0189 20.1153 11.0759 20.0582L14.7579 16.3762C14.8731 16.261 14.9378 16.1047 14.9378 15.9417C14.9378 15.7788 14.8731 15.6225 14.7579 15.5072C14.6426 15.392 14.4863 15.3273 14.3234 15.3273C14.1604 15.3273 14.0041 15.392 13.8889 15.5072L11.2551 18.1423V14.1007H10.0277V18.1423L7.39388 15.5072C7.27865 15.392 7.12236 15.3273 6.9594 15.3273C6.79644 15.3273 6.64016 15.392 6.52493 15.5072C6.4097 15.6225 6.34496 15.7788 6.34496 15.9417C6.34496 16.1047 6.4097 16.261 6.52493 16.3762L10.2069 20.0582Z" fill="white"/>
</svg>
