<svg width="29" height="28" viewBox="0 0 29 28" fill="none" xmlns="http://www.w3.org/2000/svg">
<path d="M28.0774 14.3389C28.0774 19.6349 25.0636 24.2271 20.6571 26.4933C18.5777 25.5371 16.8824 25.9277 14.7619 25.9794C14.6472 25.9826 14.5324 25.9842 14.4172 25.9842C13.9268 25.9842 13.4428 27.9735 12.9658 27.9228C6.1042 27.1982 0.756989 21.3926 0.756989 14.3389C0.756989 7.28954 6.09727 1.48716 12.953 0.756661C13.4343 0.704902 13.7914 1.80028 14.286 1.80028C14.5032 1.80028 14.7193 1.80561 14.9343 1.81575C16.9898 1.91127 19.0579 1.34037 20.7777 2.24701C25.1185 4.53509 28.0774 9.09151 28.0774 14.3389V14.3389Z" fill="#8AC653"/>
<path d="M14.7545 22.5767L13.4712 23.86L12.3934 24.9378L11.395 25.9362C11.1474 26.1838 10.8224 26.3081 10.4975 26.3081C10.1725 26.3081 9.84755 26.1838 9.59996 25.9362C9.10478 25.4405 9.10478 24.6374 9.59996 24.1417L10.4708 23.2709L11.466 22.2757L12.96 20.7816C13.4558 20.2864 14.0347 20.5105 14.5304 21.0063C15.0256 21.502 15.2503 22.0809 14.7545 22.5767Z" fill="#B46E59"/>
<path d="M11.9842 22.8259L10.1341 24.6767C9.73145 25.0793 9.65627 25.6848 9.90722 26.1633C9.79661 26.1052 9.69234 26.0293 9.59939 25.9364C9.10383 25.4408 9.10383 24.6375 9.59939 24.1419L12.9601 20.7812C13.3267 20.4146 12.3286 21.8512 11.9842 22.8259V22.8259Z" fill="#A55E4D"/>
<path d="M8.31561 6.883C8.05543 7.14318 7.92566 7.48362 7.92566 7.824C7.92566 8.16503 8.05548 8.506 8.31561 8.7656C7.79583 8.24582 6.95333 8.24582 6.43302 8.7656C6.17342 9.02519 6.04301 9.36622 6.04301 9.70719C6.04301 10.0476 6.17337 10.388 6.43302 10.6482L7.29852 11.5137C6.77874 10.9939 5.93565 10.9939 5.41587 11.5137C5.15627 11.7733 5.02591 12.1143 5.02591 12.4547C5.02591 12.7951 5.15627 13.1355 5.41528 13.3957H5.41587V13.3963C3.15863 16.4087 10.7935 22.9191 12.9658 24.6761L15.9847 25.3386L20.6574 21.3439L20.8946 15.7804L17.8007 10.8618L10.1983 6.883C9.67843 6.36322 8.83534 6.36322 8.31561 6.883V6.883Z" fill="#FFDDCE"/>
<path d="M13.4711 23.8597L12.3932 24.9375C11.8863 24.5186 11.2108 23.9445 10.4707 23.2706L11.4658 22.2754C12.1088 22.8234 12.7876 23.357 13.4711 23.8597V23.8597Z" fill="#A55E4D"/>
<path d="M5.41587 13.3955C3.15863 16.408 10.7935 22.9184 12.9658 24.6753L14.6101 23.9632C10.9003 21.4051 6.95392 17.7029 7.54211 15.5212L5.41587 13.3955Z" fill="#FFCBBE"/>
<path d="M21.7007 14.3414C21.3874 15.0744 20.1916 17.4448 17.3494 18.8754C16.8986 19.1027 16.3866 19.1061 15.9468 18.9206V18.92C15.7012 18.8169 15.4778 18.6543 15.3009 18.4384L15.2992 18.4367C15.2814 18.4149 15.2642 18.3926 15.2482 18.3702C15.0271 18.0719 14.9189 17.7208 14.9189 17.3715C14.9189 16.9442 15.081 16.5204 15.3983 16.1963C16.046 15.536 16.8077 14.6289 17.0923 13.7761L10.1981 6.88198C10.0252 6.70958 9.81668 6.59389 9.59561 6.53605C9.61391 6.50227 10.2685 5.29676 11.8452 4.21435H11.8458C12.3383 4.4549 12.9035 4.35239 13.4888 4.16051C14.4618 3.84211 15.4892 3.27687 16.3265 3.63363C17.3264 4.05971 17.8304 6.86651 18.8469 7.25363C19.21 7.68831 20.6956 9.55244 21.4063 11.8106C21.6165 12.4783 21.7596 13.181 21.7848 13.8912C21.7906 14.0458 21.7614 14.1993 21.7007 14.3414V14.3414Z" fill="#B46E59"/>
<path d="M11.8454 4.21476H11.8448C10.2684 5.29738 9.61407 6.50268 9.59576 6.53635C9.81641 6.59419 10.0253 6.70982 10.1981 6.88266L14.3799 11.0644C12.9085 9.59303 12.2796 6.40951 13.3628 4.93752C13.5074 4.74046 13.5404 4.47441 13.4885 4.16113C12.9032 4.35286 12.338 4.45547 11.8454 4.21476V4.21476Z" fill="#A55E4D"/>
<path d="M8.62317 6.65332C8.51288 6.71292 8.40899 6.7896 8.31582 6.88282C8.05564 7.14301 7.92581 7.48344 7.92581 7.82383C7.92581 8.16485 8.05564 8.50582 8.31582 8.76542L12.7135 13.163C13.0595 12.9705 13.1252 12.5004 12.8452 12.2204L8.85273 8.22851C8.59255 7.96891 8.46277 7.62794 8.46277 7.28692C8.46272 7.06867 8.51581 6.85038 8.62317 6.65332V6.65332Z" fill="#FFCBBE"/>
<path d="M5.76365 11.2617C5.63799 11.3248 5.5206 11.408 5.41617 11.5125C5.15657 11.7721 5.02621 12.1131 5.02621 12.4541C5.02621 12.7945 5.15657 13.1349 5.41617 13.3951L8.99146 16.9698C9.26343 16.5427 9.20218 15.984 8.84418 15.626L6.01444 12.7962C5.75485 12.5367 5.62449 12.1956 5.62449 11.8552C5.62443 11.6517 5.67102 11.4481 5.76365 11.2617V11.2617Z" fill="#FFCBBE"/>
<path d="M6.72394 8.5459C6.61951 8.60374 6.52159 8.67748 6.43307 8.76596C6.17347 9.02614 6.04306 9.36658 6.04306 9.70696C6.04306 10.048 6.17342 10.389 6.43307 10.6486L10.4552 14.6699C10.7201 14.3587 10.7015 13.8962 10.4125 13.6072L7.80885 11.0037L6.94335 10.1388C6.68317 9.87862 6.5534 9.53818 6.5534 9.19721C6.55345 8.97246 6.61006 8.74771 6.72394 8.5459V8.5459Z" fill="#FFCBBE"/>
<path d="M15.9467 18.9203C15.701 18.8172 15.4777 18.6545 15.3007 18.4387L15.299 18.4369C15.2812 18.4152 15.2641 18.3929 15.248 18.3705C15.027 18.0721 14.9188 17.7211 14.9188 17.3717C14.9188 16.9445 15.0808 16.5207 15.3981 16.1966C16.0458 15.5362 16.8075 14.6291 17.0921 13.7764L17.8973 14.3932C17.8973 14.3931 14.9416 17.1627 15.9467 18.9203V18.9203Z" fill="#A55E4D"/>
<path d="M11.1965 20.7506C10.701 20.255 9.89746 20.255 9.40185 20.7506C9.89741 20.255 9.89741 19.4515 9.40185 18.9559C8.90629 18.4604 8.1028 18.4604 7.60719 18.9559L7.7542 18.8089C8.24975 18.3133 8.24975 17.5099 7.7542 17.0142C7.25864 16.5187 6.45515 16.5187 5.95954 17.0142L5.40246 17.5713C4.9069 18.0669 4.9069 18.8704 5.40246 19.366C5.89801 19.8615 6.70151 19.8615 7.19707 19.366L7.05006 19.513C6.5545 20.0085 6.5545 20.812 7.05006 21.3077C7.54561 21.8032 8.34911 21.8032 8.84472 21.3077C8.34916 21.8032 8.34916 22.6067 8.84472 23.1023C9.34027 23.5979 10.1438 23.5979 10.6394 23.1023L11.1965 22.5452C11.6921 22.0496 11.6921 21.2461 11.1965 20.7506Z" fill="#B46E59"/>
<path d="M7.98092 17.3221C7.50244 17.0711 6.89691 17.1464 6.49367 17.549L5.93681 18.1065C5.53415 18.5091 5.45897 19.1146 5.70987 19.5931C5.59925 19.535 5.49498 19.4592 5.40203 19.3662C4.90648 18.8706 4.90648 18.0673 5.40203 17.5718L5.95954 17.0142C6.45509 16.5187 7.25843 16.5187 7.75398 17.0142C7.84694 17.1072 7.92282 17.2115 7.98092 17.3221V17.3221Z" fill="#A55E4D"/>
<path d="M9.62872 19.2645C9.15024 19.0135 8.54471 19.0887 8.14147 19.4914L7.5846 20.0489C7.18195 20.4515 7.10676 21.057 7.35766 21.5355C7.24705 21.4774 7.14278 21.4015 7.04983 21.3086C6.55427 20.813 6.55427 20.0097 7.04983 19.5141L7.60733 18.9566C8.10289 18.4611 8.90623 18.4611 9.40178 18.9566C9.49473 19.0495 9.57056 19.1538 9.62872 19.2645V19.2645Z" fill="#A55E4D"/>
<path d="M11.4232 21.0584C10.9447 20.8075 10.3392 20.8827 9.93593 21.2853L9.37907 21.8428C8.97641 22.2454 8.90123 22.8509 9.15213 23.3295C9.04151 23.2713 8.93725 23.1955 8.84429 23.1025C8.34874 22.607 8.34874 21.8036 8.84429 21.3081L9.4018 20.7506C9.89735 20.255 10.7007 20.255 11.1962 20.7506C11.2892 20.8435 11.3651 20.9478 11.4232 21.0584V21.0584Z" fill="#A55E4D"/>
<path d="M20.7774 2.24599L18.8468 7.25383L13.3844 4.88304L11.8449 4.21497L12.9527 0.75564C13.434 0.703881 13.9222 0.677734 14.4169 0.677734C16.7135 0.677734 18.8778 1.24442 20.7774 2.24599V2.24599Z" fill="#634086"/>
<path d="M15.0652 0.693209L13.3844 4.88304L11.8449 4.21498L12.9527 0.75564C13.434 0.703881 13.9222 0.677734 14.4169 0.677734C14.6341 0.677734 14.8502 0.68307 15.0652 0.693209V0.693209Z" fill="#543673"/>
<path d="M20.6571 21.3438V26.4925C18.7868 27.4551 16.6652 27.9983 14.4172 27.9983C13.9268 27.9983 13.4428 27.9727 12.9658 27.922V24.6761L14.9188 23.8303L20.6571 21.3438Z" fill="#FFDDCE"/>
<path d="M14.7619 27.9936C14.6472 27.9968 14.5324 27.9984 14.4172 27.9984C13.9268 27.9984 13.4428 27.9728 12.9658 27.9221V24.6762L14.6103 23.9639L14.7619 27.9936Z" fill="#FFCBBE"/>
</svg>
