<svg width="21" height="25" viewBox="0 0 21 25" fill="none" xmlns="http://www.w3.org/2000/svg">
<path fill-rule="evenodd" clip-rule="evenodd" d="M10.2391 22.2727C17.1409 20.7924 18.1306 14.6142 18.314 8.74159C18.3296 8.24418 18.7459 7.85322 19.2433 7.86858C19.7405 7.88416 20.1317 8.30065 20.1161 8.79784C19.9052 15.5476 18.4644 22.4679 10.4152 24.0776H10.0616C4.21669 22.9086 1.85144 18.9594 0.916334 14.2834C0.327835 11.3414 0.321777 8.10571 0.321777 5.16365C0.321777 4.79519 0.546359 4.46351 0.88864 4.32677L9.90349 0.720698C10.119 0.634587 10.3591 0.634804 10.5744 0.721131L19.5512 4.3272C20.0129 4.51262 20.2371 5.03816 20.0516 5.49965C19.8662 5.96137 19.3407 6.18573 18.879 6.00031L10.2375 2.52903L2.12535 5.77378C2.12687 8.43414 2.15911 11.3039 2.68421 13.9299C3.47046 17.8609 5.39563 21.234 10.2391 22.2727ZM9.33684 12.9037L12.3053 9.93525C12.6571 9.58345 13.2285 9.58345 13.5803 9.93525C13.9321 10.287 13.9321 10.8585 13.5803 11.2103L9.97424 14.8161C9.62222 15.1681 9.05146 15.1681 8.69945 14.8161L6.8963 13.0132C6.5445 12.6614 6.5445 12.09 6.8963 11.7382C7.24811 11.3864 7.81951 11.3864 8.17131 11.7382L9.33684 12.9037Z" fill="#950195"/>
</svg>
