<svg width="156" height="65" viewBox="0 0 156 65" fill="none" xmlns="http://www.w3.org/2000/svg">
<path d="M138.974 57.9062C138.24 57.8651 137.6 58.5557 136.841 58.4202C136.497 58.9601 136.014 58.6752 135.604 58.8347C135.451 59.1032 135.183 58.8663 135.033 59.1668C134.765 59.1869 134.5 59.239 134.233 59.2592C134.094 59.4623 133.898 59.4129 133.726 59.4258C133.593 59.4359 133.435 59.3835 133.356 59.6143C133.108 59.633 132.862 59.6837 132.613 59.7024C132.492 59.8722 132.336 59.8518 132.203 59.8618C132.088 59.8705 131.952 59.8486 131.852 60.0489C130.906 59.9917 130.037 60.6996 129.088 60.6105C128.914 60.8484 128.694 60.7365 128.486 60.7843C128.355 60.8263 128.176 60.7435 128.078 60.9757C127.696 61.0045 127.335 61.0638 126.953 61.0926C126.743 61.3654 126.463 61.2258 126.217 61.2765C126.086 61.3185 125.907 61.2356 125.809 61.4679C125.389 61.4995 124.971 61.5632 124.55 61.5948C124.247 61.9068 123.869 61.7425 123.528 61.8003C123.377 61.8438 123.198 61.7609 123.081 61.9946C122.527 62.0364 121.995 62.1086 121.44 62.1504C121.338 62.3187 121.202 62.2969 121.049 62.3084C120.667 62.3372 120.284 62.366 119.902 62.3948C119.788 62.4034 119.673 62.412 119.589 62.5789C118.806 62.638 118.025 62.729 117.241 62.788C117.12 62.9578 116.964 62.9373 116.831 62.9474C115.932 63.0151 115.034 63.0828 114.136 63.1504C114.002 63.1605 113.845 63.1082 113.766 63.3389C110.365 63.5952 106.963 63.8515 103.581 64.1064C103.469 63.89 103.321 63.9654 103.187 63.9755C102.27 64.0446 101.352 64.1137 100.416 64.1842C100.263 64.1958 100.113 64.2392 99.986 64.0882C99.1643 64.1501 98.3402 64.1801 97.5185 64.242C97.4109 64.0895 97.2772 64.0995 97.1434 64.1096C96.6848 64.1442 96.2262 64.1787 95.7867 64.2118C95.6529 64.2219 95.5191 64.232 95.3757 64.1143C94.7069 64.1647 94.0166 64.1846 93.3478 64.235C93.2402 64.0825 93.1256 64.0911 93.0109 64.0998C92.6096 64.13 92.2083 64.1603 91.807 64.1905C91.6733 64.2006 91.5395 64.2106 91.3961 64.093C90.7464 64.1419 90.0943 64.1589 89.4255 64.2093C89.3179 64.0568 89.2033 64.0655 89.0886 64.0741C88.7255 64.1015 88.3625 64.1288 88.0185 64.1547C87.8848 64.1648 87.751 64.1749 87.6076 64.0572C86.977 64.1047 86.344 64.1203 85.7134 64.1678C85.6058 64.0153 85.4912 64.024 85.3765 64.0326C85.0135 64.0599 84.6504 64.0873 84.3064 64.1132C84.1727 64.1233 84.0389 64.1334 83.8955 64.0157C83.3605 64.056 82.8421 64.063 82.3071 64.1033C82.1995 63.9508 82.0848 63.9594 81.9702 63.968C81.6453 63.9925 81.3396 64.0156 81.0147 64.04C80.9001 64.0487 80.7854 64.0573 80.6802 63.9368C80.1834 63.9742 79.6651 63.9811 79.1682 64.0186C79.0176 63.8051 78.8529 63.9138 78.6976 63.8934C78.387 63.8526 78.0957 64.0673 77.7898 63.8333C77.3312 63.8679 76.8702 63.8705 76.3925 63.9065C76.2419 63.693 76.0771 63.8018 75.9218 63.7813C75.6519 63.7696 75.394 63.9175 75.1478 63.7112C74.7275 63.7429 74.3046 63.7426 73.8842 63.7743C73.7552 63.5913 73.6071 63.6667 73.4518 63.6462C73.201 63.633 72.9431 63.7809 72.6969 63.5746C72.2765 63.6063 71.8537 63.606 71.4333 63.6377C71.2827 63.4242 71.118 63.533 70.9627 63.5126C70.6928 63.5008 70.4349 63.6487 70.1887 63.4424C69.8065 63.4712 69.4219 63.4681 69.0589 63.4954C68.9083 63.2819 68.7435 63.3907 68.5882 63.3703C68.3565 63.3556 68.1177 63.5021 67.8716 63.2958C67.4894 63.3246 67.1048 63.3214 66.7417 63.3488C66.5911 63.1353 66.4264 63.2441 66.2711 63.2237C66.0394 63.209 65.8006 63.3555 65.5544 63.1492C65.1722 63.178 64.7877 63.1748 64.4246 63.2022C64.2931 62.9872 64.1474 63.0946 63.9922 63.0741C63.7987 63.0566 63.6148 63.1668 63.4284 62.9881C63.0653 63.0155 62.7189 63.0095 62.3559 63.0368C62.2244 62.8219 62.0787 62.9292 61.9234 62.9088C61.7108 62.8927 61.5078 63.0044 61.3023 62.8271C60.9201 62.8559 60.5547 62.8513 60.1725 62.8801C60.0434 62.6971 59.8953 62.7725 59.7401 62.7521C59.5466 62.7346 59.3627 62.8448 59.1763 62.6661C58.8705 62.6891 58.5433 62.6817 58.2375 62.7047C58.106 62.4898 57.9604 62.5971 57.8051 62.5767C57.6116 62.5591 57.4277 62.6694 57.2413 62.4907C56.9356 62.5137 56.6083 62.5063 56.3026 62.5293C56.1735 62.3463 56.0445 62.4203 55.9084 62.3984C55.7746 62.4085 55.6408 62.4185 55.4974 62.3009C55.1917 62.3239 54.8644 62.3164 54.5587 62.3395C54.4272 62.1245 54.2815 62.2319 54.1263 62.2114C53.9328 62.1939 53.7489 62.3041 53.5625 62.1254C53.3141 62.1442 53.0656 62.1629 52.8148 62.1497C52.6833 61.9347 52.5377 62.0421 52.3824 62.0216C52.1889 62.0041 52.005 62.1143 51.8186 61.9356C51.5702 61.9543 51.3194 61.9411 51.0709 61.9598C50.9418 61.7768 50.8129 61.8508 50.6767 61.8289C50.543 61.839 50.4116 61.881 50.2658 61.7314C50.0174 61.7501 49.769 61.7688 49.5182 61.7556C49.3891 61.5726 49.2601 61.6466 49.1239 61.6247C48.9902 61.6348 48.8588 61.6768 48.713 61.5272C48.4646 61.5459 48.2138 61.5327 47.9654 61.5514C47.8363 61.3684 47.7073 61.4424 47.5712 61.4205C47.4374 61.4306 47.306 61.4726 47.1603 61.323C46.9118 61.3417 46.661 61.3285 46.4126 61.3472C46.2835 61.1642 46.1545 61.2381 46.0184 61.2163C45.8846 61.2264 45.7533 61.2684 45.6075 61.1188C45.3973 61.1346 45.2038 61.1171 44.9936 61.1329C44.4967 61.1703 43.9805 60.6953 43.479 60.9258C43.3499 60.7428 43.221 60.8168 43.0848 60.7949C42.951 60.805 42.8197 60.847 42.6739 60.6974C42.4064 60.7175 42.072 60.8712 41.8474 60.6954C41.4578 60.3714 41.1068 60.5585 40.7365 60.49C40.6074 60.307 40.4785 60.381 40.3423 60.3591C40.2085 60.3692 40.0772 60.4112 39.9314 60.2616C39.7212 60.2774 39.48 60.392 39.2984 60.2772C38.8348 59.9909 38.3381 60.2853 37.9152 60.028C37.5113 59.7694 37.1603 59.9564 36.7876 59.856C36.3743 59.7266 35.9537 59.5013 35.5406 59.6288C35.3278 59.3557 35.0795 59.6314 34.8692 59.3903C34.2649 59.5322 33.665 58.9671 33.0656 59.1728C32.7046 58.7182 32.3131 59.1332 31.969 58.9021C31.527 58.6463 31.1019 58.8711 30.7196 58.6429C30.397 58.4424 30.0675 58.6599 29.8189 58.4217C29.4652 58.0629 29.0545 58.4793 28.727 57.9579C28.7055 57.9274 28.6864 57.9288 28.6697 57.9622C28.204 58.1579 27.7356 57.8077 27.2816 57.6492C26.9256 57.5154 26.5149 57.6749 26.1921 57.2174L26.1706 57.1869C25.8172 57.342 25.4802 56.9498 25.1457 56.8465C24.7921 56.7447 24.3741 56.8083 24.0347 56.3842C24.0131 56.3537 23.994 56.3551 23.9749 56.3565C23.5688 56.3229 23.1507 56.1295 22.7803 55.8041C22.7587 55.7736 22.7205 55.7765 22.6823 55.7794C22.2404 55.7806 21.8293 55.4261 21.416 55.2966C21.1198 55.1904 20.802 55.0538 20.5224 54.9142C20.2405 54.7427 19.9061 54.8964 19.6622 54.4651C19.6407 54.4346 19.581 54.407 19.5428 54.4099C19.2251 54.5301 18.9311 54.199 18.6516 54.0594C18.2525 53.8646 17.8368 53.7032 17.4449 53.3473C17.1366 53.0814 16.7734 52.8518 16.4508 52.6513C16.2476 52.506 16.0254 52.3621 15.8366 52.1515C15.4853 51.8246 15.1124 51.4673 14.7611 51.1404C14.3046 50.693 13.8099 50.2484 13.4154 49.6036C13.0448 49.0212 12.6026 48.5084 12.2654 47.8593C12.0622 47.457 11.835 46.9923 11.6293 46.5581C11.426 46.1558 11.4974 45.5723 11.2058 45.273C11.1627 45.212 11.1483 45.0204 11.1363 44.8607C11.0568 43.8067 10.9392 42.7555 10.9195 41.7291C10.9192 41.2152 10.9739 40.665 11.1097 40.1729C11.1884 39.9421 11.2026 39.6198 11.2789 39.3571C11.3838 38.9638 11.4695 38.5718 11.5744 38.1785C11.8605 37.129 12.2995 36.325 12.7338 35.4571C13.0177 34.8897 13.2514 34.1654 13.6238 33.7519C13.8721 33.4762 14.094 33.1061 14.3423 32.8304C14.6264 32.5199 14.9511 32.2385 15.1443 31.7421C15.2588 31.4765 15.4451 31.3982 15.5716 31.2923C15.8772 31.0123 16.1422 30.7033 16.4669 30.4218C16.6293 30.2811 16.8538 30.1999 16.9659 29.9024C17.016 29.8023 17.0733 29.7979 17.1282 29.7617C17.4316 29.7067 17.6344 29.3381 17.8899 29.1582C18.1096 29.0132 18.2551 28.6489 18.5274 28.6926C18.7591 28.7073 18.907 28.3749 19.1076 28.2313C19.2366 28.1573 19.4061 28.1124 19.4921 27.9775C19.7164 27.6394 20.027 27.6802 20.2752 27.4045C20.4519 27.1985 20.6883 27.0201 20.9271 26.8736C21.2017 26.6923 21.5289 26.6997 21.7293 26.2992C21.7461 26.2658 21.8034 26.2615 21.8392 26.2267C22.1926 26.0715 22.5461 25.9164 22.8445 25.5406C22.8612 25.5072 22.8994 25.5043 22.9376 25.5015C23.3318 25.6324 23.6899 25.2842 23.9191 25.0099C24.2199 24.6661 24.6691 25.0177 24.8718 24.3921C25.2254 24.4939 25.4617 24.0585 25.7793 23.9382C26.1518 23.7817 26.5914 23.7486 26.904 23.3074C26.904 23.3074 26.9207 23.274 26.9422 23.3045C27.3747 23.4326 27.6825 22.9275 28.079 22.8334C28.5137 22.7364 28.9627 22.5741 29.316 22.162C29.3327 22.1286 29.3518 22.1272 29.3709 22.1258C29.8989 22.2466 30.3668 21.8259 30.811 21.5997C31.2361 21.3749 31.7498 21.5611 32.1101 20.9878C32.1268 20.9545 32.1459 20.953 32.1651 20.9516C32.7838 21.0013 33.2922 20.3527 33.9157 20.4663C34.0183 20.298 34.1951 20.3489 34.2953 20.1486C34.5055 20.1328 34.7205 20.1808 34.8853 20.0721C35.3748 19.6818 35.9482 19.8956 36.4043 19.5721C36.7696 19.3198 37.1184 19.3577 37.4742 19.2345C37.5959 19.0648 37.7512 19.0852 37.885 19.0751C37.9996 19.0665 38.1358 19.0883 38.2169 18.8895C38.4653 18.8708 38.7113 18.8201 38.9598 18.8014C39.0624 18.6331 39.2176 18.6535 39.3514 18.6434C39.4661 18.6348 39.5807 18.6261 39.6642 18.4592C39.9509 18.4376 40.2542 18.3826 40.5408 18.361C40.6793 18.1579 40.8752 18.2074 41.0472 18.1944C41.1809 18.1843 41.3362 18.2047 41.4173 18.0059C41.8186 17.9757 42.2175 17.9135 42.6187 17.8833C42.8479 17.609 43.1275 17.7486 43.3735 17.6979C43.524 17.6544 43.7032 17.7373 43.8201 17.5036C44.3742 17.4619 44.9069 17.3896 45.461 17.3479C45.5636 17.1795 45.6998 17.2014 45.8527 17.1899C46.3877 17.1496 46.9228 17.1092 47.477 17.0675C47.6107 17.0574 47.7278 17.0807 47.828 16.8804C49.7962 16.7321 51.7644 16.5838 53.7327 16.4355C53.8402 16.588 53.974 16.5779 54.1078 16.5679C54.6237 16.529 55.1396 16.4901 55.6556 16.4512C55.7893 16.4412 55.9231 16.4311 56.0665 16.5488C56.2958 16.5315 56.5275 16.5461 56.7735 16.4955C57.1342 16.4362 57.4306 16.7993 57.7484 16.936C58.145 17.0988 58.1165 17.4864 58.1694 17.9322C58.2149 18.2821 58.0598 18.5186 57.9309 18.5926C57.6562 18.7739 57.4343 19.1439 57.0998 19.0406C56.9972 19.209 56.8634 19.2191 56.7106 19.2306C56.3475 19.2579 55.9844 19.2853 55.6405 19.3112C55.5258 19.3199 55.4112 19.3285 55.3277 19.4954C54.2576 19.576 53.1707 19.69 52.1006 19.7707C51.9789 19.9404 51.8236 19.92 51.6899 19.9301C50.7727 19.9992 49.8554 20.0683 48.9191 20.1389C48.7853 20.149 48.63 20.1285 48.5489 20.3274C47.7081 20.3907 46.8698 20.486 46.0098 20.5508C45.9072 20.7192 45.7711 20.6973 45.6182 20.7088C45.236 20.7376 44.8538 20.7664 44.4716 20.7952C44.357 20.8038 44.2423 20.8125 44.1588 20.9794C43.6811 21.0154 43.1867 21.0848 42.709 21.1208C42.4989 21.3936 42.2193 21.254 41.9733 21.3047C41.8229 21.3481 41.6628 21.2638 41.565 21.4961C41.221 21.522 40.8986 21.5784 40.5546 21.6043C40.3971 21.8089 40.2012 21.7594 40.0101 21.7738C39.8787 21.8158 39.6995 21.733 39.6017 21.9652C39.296 21.9882 38.9735 22.0447 38.6678 22.0677C38.546 22.2375 38.3908 22.217 38.257 22.2271C38.1423 22.2358 38.0062 22.2139 37.9251 22.4127C37.6767 22.4315 37.4307 22.4821 37.1822 22.5008C37.0271 22.7374 36.7618 22.5325 36.6115 22.8329C36.0071 22.7179 35.4987 23.3665 34.8991 23.3153C34.4165 23.2874 33.982 23.6414 33.5545 23.8342C33.2369 23.9545 32.8475 23.8875 32.5992 24.1632C32.2101 24.6101 31.6629 24.2337 31.3407 24.8041C31.324 24.8374 31.3049 24.8389 31.2858 24.8403C30.796 24.7166 30.3615 25.0706 29.9795 25.3563C29.6332 25.6073 29.196 25.4154 28.9479 25.948L28.9312 25.9814C28.5394 25.8824 28.2625 26.2887 27.9282 26.4424C27.5198 26.6338 27.1018 26.6974 26.7485 27.1095C26.7127 27.1443 26.6769 27.1791 26.6363 27.1501C26.242 27.0192 25.9676 27.4574 25.6333 27.6111C25.2082 27.8359 24.764 28.0621 24.3438 28.3507C23.9593 28.6045 23.594 28.8569 23.2071 29.0788C22.8585 29.2978 22.4908 29.5182 22.1852 29.7982C21.9536 30.0405 21.6406 29.9677 21.4211 30.3698C21.3018 30.5715 20.9912 30.5306 20.8194 30.8006C20.5759 31.1401 20.232 31.166 19.9646 31.4431C19.7855 31.6172 19.5228 31.7013 19.3247 31.8768C19.1289 32.0843 18.9259 32.196 18.7517 32.4339C18.6108 32.6052 18.4342 32.8112 18.3004 32.8213C17.8657 32.9183 17.5746 33.3899 17.2332 33.7047C17.0159 33.8817 16.8203 34.3462 16.5815 34.4927C16.2687 34.6768 16.1591 35.2633 15.8367 35.3197C15.7053 35.3617 15.7389 35.5519 15.6672 35.6216C15.3234 35.9044 15.0705 36.3732 14.7721 36.749C14.4713 37.0929 14.2638 37.6546 14.0133 38.1553C13.8964 38.389 13.7603 38.6241 13.6865 38.9187C13.4838 39.5443 13.2022 40.1437 13.0999 40.826C12.9452 41.8334 12.9291 42.8947 13.1423 43.9386C13.2021 44.2232 13.2716 44.6355 13.482 44.8767C13.6278 45.0263 13.6949 45.4067 13.7475 45.5955C13.9318 46.2561 14.2975 46.5177 14.5629 46.9795C14.8044 47.3789 15.0674 47.8088 15.3517 48.0122C15.6576 48.2461 15.8967 48.6136 16.2217 48.8461C16.5467 49.0785 16.9051 49.2443 17.2015 49.6074C17.3497 49.789 17.5241 49.8079 17.6675 49.9256C18.0737 50.2162 18.48 50.5068 18.8862 50.7974C19.1084 50.9413 19.3593 50.9545 19.5839 51.1303C19.995 51.4848 20.4703 51.4169 20.8528 51.902C20.8958 51.963 20.9531 51.9587 21.0104 51.9544C21.3305 51.866 21.6412 52.1638 21.9016 52.3048C22.1645 52.4777 22.494 52.2602 22.7045 52.7583C22.7069 52.7902 22.7642 52.7859 22.8024 52.783C23.175 52.6264 23.5621 52.9185 23.8465 53.1219C24.1309 53.3253 24.4747 53.0425 24.6685 53.5739C24.6685 53.5739 24.6876 53.5725 24.7067 53.571C25.096 53.3811 25.4903 53.769 25.8654 53.9013C26.2381 54.0017 26.6585 53.9701 27.0146 54.3608C27.0362 54.3913 27.0553 54.3899 27.0744 54.3884C27.4827 54.197 27.8938 54.5515 28.2522 54.7173C28.6297 54.8815 29.0572 54.6887 29.399 55.1448C29.4205 55.1753 29.4397 55.1738 29.4588 55.1724C29.9627 54.9738 30.4884 55.3197 30.9614 55.4768C31.4154 55.6353 31.8978 55.4062 32.3376 55.887C32.3591 55.9175 32.3782 55.9161 32.3973 55.9146C32.9801 55.7422 33.5632 56.3407 34.1245 56.1378C34.256 56.3528 34.4565 56.2092 34.6048 56.3907C34.8532 56.372 35.104 56.3853 35.3524 56.3665C35.503 56.58 35.6845 56.4379 35.8327 56.6194C36.062 56.6022 36.3223 56.4862 36.523 56.5996C37.063 56.8801 37.617 56.5814 38.1379 56.8633C38.5991 57.1177 39.0075 56.9263 39.4375 57.0224C39.5666 57.2054 39.6955 57.1314 39.8317 57.1533C39.9464 57.1446 40.061 57.136 40.1662 57.2566C40.3764 57.2407 40.5866 57.2249 40.7992 57.241C41.4394 57.3212 42.0917 57.5612 42.715 57.4179C42.8441 57.6009 42.9731 57.5269 43.1092 57.5488C43.243 57.5387 43.3744 57.4967 43.5202 57.6463C43.7686 57.6276 44.0337 57.5755 44.2869 57.6206C44.9272 57.7009 45.5794 57.9408 46.2028 57.7975C46.3319 57.9805 46.4608 57.9065 46.597 57.9284C46.7308 57.9183 46.8621 57.8763 47.0079 58.0259C47.3137 58.0029 47.6409 58.0103 47.9467 57.9873C48.0757 58.1703 48.2047 58.0964 48.3409 58.1182C48.4746 58.1081 48.606 58.0661 48.7518 58.2157C49.0575 58.1927 49.3848 58.2002 49.6905 58.1771C49.8196 58.3601 49.9486 58.2862 50.0847 58.308C50.24 58.3285 50.4072 58.2516 50.553 58.4012C50.8396 58.3796 51.1478 58.3885 51.4344 58.3669C51.5659 58.5819 51.7116 58.4745 51.8668 58.495C52.0603 58.5125 52.2442 58.4023 52.4306 58.581C52.7364 58.5579 53.0636 58.5654 53.3694 58.5424C53.4985 58.7254 53.6274 58.6514 53.7636 58.6733C53.8973 58.6632 54.0287 58.6212 54.1745 58.7708C54.4802 58.7478 54.8075 58.7552 55.1132 58.7322C55.2447 58.9471 55.3904 58.8398 55.5457 58.8602C55.7392 58.8778 55.923 58.7675 56.1094 58.9462C56.3579 58.9275 56.6087 58.9407 56.8571 58.922C56.9886 59.1369 57.1343 59.0296 57.2895 59.05C57.483 59.0676 57.6669 58.9573 57.8533 59.136C58.1591 59.113 58.4863 59.1205 58.7921 59.0974C58.9236 59.3124 59.0692 59.205 59.2245 59.2254C59.418 59.243 59.6019 59.1328 59.7883 59.3114C60.094 59.2884 60.4213 59.2959 60.727 59.2728C60.8561 59.4558 60.9851 59.3819 61.1212 59.4037C61.2956 59.4227 61.4795 59.3125 61.6468 59.4926C61.9143 59.4725 62.2082 59.5467 62.4685 59.4307C62.8243 59.3075 63.1471 59.765 63.5053 59.6738C63.866 59.6145 64.2315 59.6191 64.5778 59.6251C64.7093 59.8401 64.855 59.7327 65.0103 59.7531C65.2038 59.7707 65.3876 59.6605 65.5741 59.8392C65.918 59.8132 66.2453 59.8207 66.5892 59.7948C66.7207 60.0097 66.8664 59.9024 67.0217 59.9228C67.2343 59.9389 67.4373 59.8272 67.6428 60.0045C67.9103 59.9843 68.1778 59.9642 68.4478 59.976C69.2336 59.9489 70.015 60.3718 70.784 60.1211C70.9155 60.3361 71.0612 60.2287 71.2165 60.2492C71.4291 60.2653 71.632 60.1536 71.8376 60.3308C72.2006 60.3035 72.547 60.3095 72.9101 60.2822C73.0607 60.4957 73.2254 60.3869 73.3807 60.4073C73.6124 60.422 73.8512 60.2755 74.0974 60.4818C74.4796 60.453 74.845 60.4576 75.2272 60.4288C75.3563 60.6118 75.5044 60.5364 75.6596 60.5568C75.8531 60.5743 76.037 60.4641 76.2234 60.6428C76.6629 60.6097 77.1048 60.6085 77.5444 60.5754C77.695 60.7889 77.8597 60.6801 78.015 60.7006C78.2467 60.7152 78.4855 60.5687 78.7317 60.775C79.1712 60.7419 79.6131 60.7407 80.0526 60.7076C80.2032 60.9211 80.368 60.8124 80.5232 60.8328C80.872 60.8707 81.2015 60.6532 81.5647 60.8828C82.0998 60.8425 82.6181 60.8355 83.1532 60.7952C83.2608 60.9477 83.3754 60.9391 83.4901 60.9304C83.8149 60.906 84.1207 60.8829 84.4455 60.8585C84.5602 60.8498 84.6748 60.8412 84.78 60.9617C85.3724 60.9171 85.9672 60.9044 86.5595 60.8598C86.6671 61.0123 86.7818 61.0036 86.8964 60.995C87.2977 60.9648 87.699 60.9345 88.1003 60.9043C88.2341 60.8942 88.3678 60.8841 88.5112 61.0018C89.18 60.9514 89.8703 60.9315 90.5392 60.8811C90.6491 61.0656 90.7805 61.0235 90.9143 61.0135C91.3729 60.9789 91.8315 60.9444 92.271 60.9112C92.4048 60.9012 92.5385 60.8911 92.6819 61.0088C93.4272 60.9526 94.1557 60.9298 94.901 60.8737C95.0085 61.0262 95.1423 61.0161 95.2761 61.006C95.7156 60.9729 96.136 60.9412 96.5755 60.9081C96.7092 60.898 96.843 60.888 96.9864 61.0056C98.0374 60.9264 99.1099 60.8778 100.161 60.7986C100.268 60.9511 100.402 60.941 100.536 60.9309C105.179 60.581 109.842 60.2297 114.486 59.8798C114.619 59.8698 114.736 59.8931 114.837 59.6928C116.06 59.6006 117.28 59.4765 118.522 59.3829C118.625 59.2146 118.761 59.2365 118.914 59.2249C119.411 59.1875 119.908 59.1501 120.404 59.1126C120.538 59.1026 120.655 59.1259 120.755 58.9256C121.367 58.8795 121.976 58.8015 122.587 58.7554C122.891 58.4435 123.268 58.6078 123.61 58.5499C123.76 58.5064 123.939 58.5893 124.056 58.3556C124.515 58.3211 124.971 58.2546 125.449 58.2186C125.678 57.9443 125.958 58.0839 126.204 58.0332C126.354 57.9898 126.533 58.0726 126.65 57.839C127.032 57.8102 127.393 57.7509 127.775 57.7221C127.933 57.5175 128.129 57.567 128.32 57.5526C128.451 57.5106 128.63 57.5934 128.728 57.3612C129.034 57.3382 129.356 57.2817 129.662 57.2587C129.82 57.0541 130.015 57.1036 130.207 57.0892C130.338 57.0472 130.517 57.13 130.615 56.8978C130.863 56.8791 131.112 56.8604 131.358 56.8097C131.479 56.6399 131.635 56.6604 131.768 56.6503C131.883 56.6416 132.019 56.6635 132.12 56.4632C132.425 56.4402 132.748 56.3838 133.053 56.3607C133.209 56.1242 133.474 56.329 133.624 56.0286C133.834 56.0128 134.047 56.0289 134.252 55.9492C134.814 55.7463 135.382 55.6392 135.922 55.4058C136.256 55.2521 136.689 55.3801 136.932 55.0406C137.3 54.5632 137.854 55.0353 138.171 54.4011C138.188 54.3677 138.207 54.3663 138.229 54.3968C138.738 54.5191 139.191 54.1637 139.573 53.8779C139.972 53.5588 140.476 53.8741 140.777 53.2733C140.777 53.2733 140.796 53.2718 140.815 53.2704C141.247 53.3984 141.579 52.9558 141.949 52.7673C142.281 52.5817 142.709 52.6459 142.981 52.1757C142.998 52.1423 143.034 52.1075 143.074 52.1365C143.468 52.2674 143.788 51.9221 144.075 51.6435C144.38 51.3635 144.82 51.5874 145.047 51.0242C145.063 50.9909 145.121 50.9865 145.159 50.9837C145.553 51.1146 145.828 50.6763 146.159 50.4907C146.585 50.2659 147.033 50.1036 147.432 49.7845C147.595 49.6438 147.819 49.5626 147.934 49.297C147.981 49.1649 148.058 49.1592 148.115 49.1548C148.399 49.1013 148.626 48.7951 148.836 48.5223C148.958 48.3525 149.123 48.2437 149.268 48.1364C149.595 47.8869 149.762 47.2961 150.08 47.1758C150.414 47.0222 150.502 46.4052 150.844 46.3474C150.978 46.3373 150.942 46.1151 151.011 46.0136C151.708 45.0616 152.338 43.9863 152.836 42.696C152.965 42.365 152.967 41.8831 153.122 41.6465C153.411 41.1429 153.11 40.459 153.298 39.8987C153.408 39.5692 153.41 38.8303 153.089 38.4047C153.046 38.3437 153.034 38.184 153.025 38.0562C152.998 37.4479 152.716 37.0195 152.582 36.5156C152.446 35.9798 152.137 35.714 152.003 35.2101C151.874 34.7702 151.563 34.4724 151.327 34.1369C150.789 33.3743 150.265 32.5465 149.682 31.948C149.223 31.4686 148.876 30.6917 148.32 30.4446C148.181 30.3908 148.076 30.0133 147.913 29.897C147.545 29.6035 147.191 29.2447 146.859 28.9164C146.546 28.5867 146.185 28.389 145.903 27.9606C145.772 27.7456 145.552 27.6337 145.353 27.5523C145.234 27.497 145.167 27.3736 145.064 27.285C144.794 27.0162 144.51 26.8128 144.225 26.6094C144.001 26.4336 143.709 26.3913 143.549 26.05C143.389 25.7087 143.136 25.6636 142.954 25.5488C142.612 25.3497 142.283 25.0533 141.938 24.8223C141.616 24.6217 141.272 24.3907 140.961 24.0929C140.775 23.9142 140.543 23.6426 140.278 23.6946C140.051 23.7439 139.855 23.4374 139.654 23.3241C139.434 23.2121 139.19 23.0378 138.963 22.83C138.571 22.4741 138.149 22.4738 137.754 22.086C137.568 21.9073 137.319 21.669 137.071 21.6878C136.844 21.737 136.646 21.3986 136.407 21.2881C136.328 21.2619 136.22 21.1094 136.125 21.1166C135.862 21.2007 135.644 20.8637 135.425 20.7518C135.085 20.5846 134.758 20.3202 134.409 20.2822C134.216 20.2647 133.989 20.0569 133.922 19.9335C133.663 19.5675 133.355 19.8156 133.1 19.4815C132.949 19.268 132.631 19.3883 132.402 19.1486C132.129 18.8479 131.781 18.81 131.482 18.6719C131.222 18.5309 130.942 18.3913 130.646 18.2852C130.349 18.179 130.02 18.1396 129.726 17.8084C129.685 17.7793 129.645 17.7503 129.606 17.7532C129.291 17.9054 129.011 17.5089 128.696 17.4042C128.285 17.3066 127.881 17.048 127.463 16.8546C127.083 16.6584 126.687 16.4956 126.29 16.3327C125.872 16.1394 125.475 15.9765 125.057 15.7832C124.617 15.5593 124.166 15.4327 123.726 15.2089C123.468 15.0999 123.146 15.1563 122.888 14.7903C122.715 14.5463 122.41 14.5693 122.216 14.5518C121.846 14.4833 121.473 14.3829 121.167 14.149C120.823 13.9179 120.465 14.0092 120.099 13.7476C119.875 13.5718 119.535 13.4046 119.246 13.3943C118.862 13.3912 118.501 13.1935 118.133 12.9C118.111 12.8695 118.092 12.8709 118.073 12.8724C117.665 13.0638 117.271 12.6759 116.876 12.545C116.523 12.4431 116.107 12.5387 115.768 12.1146C115.746 12.0841 115.727 12.0855 115.708 12.0869C115.3 12.2783 114.905 11.8905 114.511 11.7596C114.157 11.6577 113.742 11.7533 113.402 11.3291C113.381 11.2986 113.362 11.3001 113.343 11.3015C112.934 11.4929 112.471 11.2066 112.127 10.9756C111.682 10.6878 111.214 11.1086 110.805 10.529C110.805 10.529 110.786 10.5305 110.767 10.5319C110.318 10.6942 109.886 10.3093 109.456 10.2132C109.085 10.1447 108.648 10.2098 108.29 9.78708C108.268 9.75658 108.249 9.75802 108.23 9.75946C107.812 9.82307 107.401 9.72555 107 9.49882C106.517 9.21398 105.977 9.44737 105.502 9.00138C105.502 9.00138 105.482 9.00282 105.463 9.00426C105.062 9.0345 104.665 8.87165 104.276 8.80463C103.712 8.71862 103.165 8.34227 102.604 8.54517C102.305 8.1501 101.944 8.46637 101.679 8.2615C101.314 7.99995 100.946 8.22039 100.642 8.01841C100.255 7.72636 99.8732 8.01212 99.5482 7.77964C99.1253 7.52241 98.7002 7.74717 98.3179 7.519C97.9356 7.29084 97.5487 7.51271 97.2261 7.31217C96.7841 7.05638 96.359 7.28114 95.9767 7.05298C95.6541 6.85243 95.3699 6.90597 95.0593 6.86512C94.9493 6.68068 94.818 6.7227 94.7033 6.73134C94.5504 6.74286 94.4 6.78632 94.2733 6.63525C93.6069 6.71759 92.9545 6.22068 92.2786 6.43221C91.8579 5.94997 91.4306 6.39975 91.0291 6.17302C90.5274 5.88961 90.0115 6.18545 89.5504 5.9311C89.0892 5.67676 88.6809 5.86814 88.2508 5.77205C88.0572 5.49755 87.828 5.77179 87.6368 5.52922C87.3311 5.55226 87.0038 5.5448 86.698 5.56783C86.4853 5.29477 86.237 5.57045 86.0267 5.32932C85.7401 5.35092 85.4319 5.34202 85.1453 5.36362C85.0162 5.18061 84.8872 5.25457 84.7511 5.23271C84.6173 5.24279 84.4859 5.28481 84.3401 5.13519C84.0726 5.15535 83.8027 5.14356 83.5161 5.16516C83.387 4.98216 83.258 5.05612 83.1218 5.03425C82.9475 5.01527 82.7636 5.12549 82.5963 4.94537C82.2905 4.96841 81.9633 4.96094 81.6575 4.98398C81.5284 4.80098 81.3995 4.87494 81.2633 4.85308C81.0889 4.83409 80.9051 4.94431 80.7377 4.76419C80.3938 4.79011 80.0665 4.78264 79.7226 4.80856C79.5935 4.62556 79.4454 4.70096 79.2901 4.68054C79.0966 4.66299 78.9128 4.77321 78.7263 4.59453C78.3633 4.62189 78.0169 4.61586 77.6538 4.64322C77.5223 4.42828 77.3767 4.53562 77.2214 4.5152C76.9706 4.50197 76.7127 4.64989 76.4665 4.44359C76.0652 4.47383 75.6615 4.47212 75.2603 4.50236C75.1288 4.28741 74.9831 4.39475 74.8278 4.37433C74.5388 4.36399 74.2451 4.54673 73.9583 4.31136C73.4997 4.34592 73.0387 4.34854 72.5609 4.38453C72.4103 4.17103 72.2456 4.27981 72.0903 4.25939C71.7224 4.22286 71.3547 4.4433 70.9915 4.2137C70.4182 4.25689 69.8616 4.26671 69.2883 4.3099C69.1784 4.12546 69.047 4.16748 68.9132 4.17756C68.4737 4.21067 68.0533 4.24235 67.6138 4.27547C67.4801 4.28555 67.3463 4.29562 67.2029 4.17794C66.2666 4.24849 65.3469 4.28567 64.4106 4.35622C64.2815 4.17322 64.1502 4.21524 64.0164 4.22531C62.6979 4.32466 61.3794 4.42401 60.0799 4.52192C59.9271 4.53344 59.7575 4.57834 59.6117 4.42872C58.1212 4.54102 56.6498 4.65189 55.1593 4.7642C55.04 4.96592 54.8632 4.915 54.7103 4.92652C53.4109 5.02443 52.1306 5.1209 50.8312 5.21881C50.6975 5.22888 50.5422 5.20846 50.4611 5.4073C49.5821 5.47354 48.6863 5.57315 47.8073 5.63938C47.7047 5.80772 47.5685 5.78586 47.4157 5.79738C46.9379 5.83338 46.4602 5.86937 45.9825 5.90537C45.8487 5.91545 45.7317 5.89215 45.6315 6.09243C45.0009 6.13994 44.3727 6.2194 43.7421 6.26691C43.6395 6.43525 43.5033 6.41339 43.3504 6.42491C43.0065 6.45083 42.6816 6.47531 42.3377 6.50122C42.223 6.50986 42.1083 6.5185 42.0248 6.6854C41.5662 6.71996 41.11 6.78646 40.6323 6.82245C40.3482 7.13295 39.9898 6.96723 39.6865 7.02221C39.536 7.06566 39.3568 6.9828 39.2399 7.21646C38.8004 7.24958 38.3633 7.31464 37.9238 7.34775C37.7137 7.62055 37.4342 7.48101 37.1881 7.53167C37.0568 7.57369 36.8776 7.49083 36.7798 7.72305C36.3976 7.75184 36.0178 7.81258 35.6548 7.83994C35.4996 8.07648 35.2822 7.9965 35.0911 8.0109C34.9024 8.05723 34.685 7.97725 34.5299 8.21379C34.2241 8.23683 33.9017 8.29325 33.596 8.31629C33.4575 8.51945 33.2616 8.46996 33.0896 8.48292C32.9559 8.493 32.8006 8.47258 32.7195 8.67142C32.4138 8.69446 32.0913 8.75088 31.7856 8.77391C31.628 8.97851 31.4321 8.92903 31.241 8.94343C31.1097 8.98545 30.9305 8.90259 30.8327 9.13481C30.5842 9.15353 30.3382 9.20419 30.0898 9.2229C29.9514 9.42607 29.7555 9.37658 29.5835 9.38954C29.4497 9.39962 29.2945 9.3792 29.2134 9.57804C28.9458 9.5982 28.6807 9.6503 28.3941 9.67189C28.2724 9.84167 28.1171 9.82125 27.9833 9.83133C27.8687 9.83997 27.7325 9.81811 27.6323 10.0184C27.3839 10.0371 27.1379 10.0878 26.8894 10.1065C26.7677 10.2763 26.6124 10.2558 26.4787 10.2659C26.364 10.2746 26.2278 10.2527 26.1467 10.4515C25.485 10.3408 24.9192 10.9937 24.2432 10.9483C23.7033 10.9247 23.2115 11.283 22.7052 11.4497C22.3493 11.5728 21.991 11.6641 21.6519 11.7539C21.5302 11.9237 21.3749 11.9032 21.2411 11.9133C21.1265 11.922 20.9903 11.9001 20.9092 12.0989C20.238 12.1174 19.6674 12.7064 18.9866 12.5971C18.6978 13.1007 18.2294 12.7506 17.9238 13.0306C17.5991 13.312 17.2719 13.3045 16.9327 13.3943C16.8301 13.5627 16.6939 13.5408 16.541 13.5523C16.4264 13.561 16.3117 13.5696 16.2282 13.7365C15.6095 13.6868 15.1011 14.3354 14.4776 14.2218C14.1339 14.7616 13.644 14.3809 13.2811 14.6653C12.8823 14.9844 12.4069 14.7954 12.0464 15.1116C11.7025 15.3945 11.325 15.2302 11.017 15.4783C10.6183 15.7974 10.1452 15.6403 9.7823 15.9247C9.45759 16.2061 9.08008 16.0418 8.79119 16.2884C8.37575 16.641 7.87877 16.4214 7.53736 16.7362C7.19354 17.0191 6.85907 16.9158 6.54384 17.0681C6.08056 17.2957 5.58613 17.3651 5.12044 17.5608C4.84103 17.6782 4.5425 17.7971 4.24157 17.884C4.08885 18.1525 3.82358 17.9476 3.67086 18.2161C3.33652 18.3698 3.0881 18.3885 2.83969 18.4072C2.73707 18.5755 2.56027 18.5246 2.46006 18.7249C2.19254 18.7451 1.92501 18.7652 1.679 18.8159C1.29923 18.8766 0.959935 18.7094 0.639608 18.2839C0.615685 18.2214 0.560765 18.2577 0.522547 18.2606C0.49848 17.9412 0.474413 17.6218 0.450347 17.3024C0.703143 16.5766 1.08036 16.227 1.58668 16.0604C1.92342 15.9386 2.22902 15.6586 2.61601 15.6937C2.7904 15.7127 2.93846 15.6373 3.03626 15.4051C3.5498 15.3343 4.04408 15.0079 4.5504 14.8413C4.98268 14.7123 5.4604 14.6763 5.85192 14.2614C5.88773 14.2266 5.94265 14.1903 5.99998 14.186C6.30572 14.1629 6.58032 13.9816 6.87885 13.8628C7.28721 13.6714 7.7052 13.6078 8.11357 13.4164C8.66999 13.1496 9.25514 13.0092 9.80435 12.6466C9.91419 12.5741 10.0479 12.564 10.1817 12.5539C10.4301 12.5352 10.6785 12.5165 10.9101 12.2742C11.0868 12.0681 11.3424 12.1452 11.5526 12.1294C11.727 12.1484 11.8966 12.1035 11.992 11.8393C12.1376 11.732 12.2929 11.7524 12.4649 11.7394C12.6177 11.7279 12.7491 11.6859 12.8732 11.5481C12.909 11.5132 12.9425 11.4465 12.9807 11.4436C13.4823 11.47 13.9024 10.9244 14.4041 10.9509C14.6167 10.967 14.8054 10.9206 14.9605 10.6841C14.9963 10.6493 15.0321 10.6145 15.0703 10.6116C15.6317 10.6656 16.0948 10.181 16.6299 10.1407C16.6681 10.1379 16.7279 10.1655 16.7613 10.0987C17.1313 9.65325 17.6522 9.93522 18.0151 9.6509C18.5046 9.26068 19.0804 9.50639 19.5435 9.02179C19.7035 8.84913 19.9591 8.92623 20.1693 8.91039C20.432 8.82635 20.757 9.05884 20.955 8.62634C21.0816 8.52043 21.2153 8.51036 21.3491 8.50028C21.5402 8.48588 21.7313 8.47148 21.8864 8.23494C21.9222 8.20012 21.958 8.1653 21.9962 8.16242C22.6149 8.21216 23.1449 7.59404 23.7851 7.67429C23.9786 7.69183 24.1434 7.58305 24.3248 7.44089C24.6495 7.15945 25.0438 7.29036 25.4235 7.22962C25.6862 7.14558 26.0112 7.37807 26.2093 6.94556C26.4265 6.76858 26.6822 6.84569 26.9282 6.79503C27.1909 6.71099 27.5159 6.94347 27.7139 6.51097C27.9312 6.33399 28.1868 6.41109 28.4328 6.36044C28.6955 6.2764 29.0205 6.50888 29.2162 6.04444C29.5099 5.8617 29.8228 5.93448 30.1095 5.91289C30.2814 5.89993 30.4319 5.85647 30.6063 5.87545C30.7616 5.89587 30.8881 5.78997 30.9692 5.59113C31.3011 5.40551 31.6523 5.47542 31.9963 5.4495C32.2065 5.43366 32.4143 5.38588 32.6269 5.40198C32.7798 5.39046 32.8896 5.31794 32.9707 5.1191C33.3217 4.93204 33.692 5.00051 34.0718 4.93977C34.282 4.92393 34.4898 4.87615 34.7024 4.89226C34.8553 4.88074 34.9651 4.80822 35.0462 4.60938C35.3972 4.42232 35.7866 4.48934 36.1473 4.43004C36.4531 4.40701 36.7779 4.38253 37.0836 4.35949C37.2365 4.34797 37.3464 4.27545 37.4299 4.10855C37.7976 3.88811 38.2085 3.98564 38.6074 3.92346C38.9323 3.89898 39.238 3.87595 39.5629 3.85147C39.7157 3.83995 39.8256 3.76743 39.9067 3.56859C40.37 3.34095 40.8573 3.43271 41.3326 3.36478C41.7339 3.33454 42.1352 3.3043 42.5365 3.27407C42.6894 3.26255 42.7992 3.19003 42.8827 3.02313C43.4033 2.79117 43.9671 2.87718 44.4998 2.80492C45.0348 2.7646 45.5699 2.72429 46.1049 2.68397C46.2578 2.67245 46.3891 2.63044 46.4893 2.43015C46.5968 2.32569 46.7114 2.31705 46.8261 2.30842C47.6669 2.24506 48.4886 2.18315 49.3294 2.1198C50.3803 2.04061 51.4122 1.96285 52.4632 1.88366C52.597 1.87358 52.7547 1.92594 52.8334 1.69516C55.6615 1.48207 58.4896 1.26897 61.2986 1.05731C61.411 1.2737 61.5591 1.1983 61.6928 1.18822C62.591 1.12054 63.4891 1.05287 64.3872 0.985199C64.5401 0.97368 64.6905 0.930222 64.8196 1.11322C65.6485 1.14713 66.4893 1.08378 67.311 1.02187C67.4186 1.17437 67.5333 1.16573 67.6479 1.15709C68.0492 1.12685 68.4505 1.09662 68.8518 1.06638C68.9855 1.0563 69.1193 1.04622 69.2627 1.16391C69.8551 1.11927 70.4499 1.10658 71.0422 1.06194C71.1928 1.27544 71.3576 1.16666 71.5129 1.18709C71.8426 1.22649 72.153 1.01037 72.478 1.24286C72.9557 1.20686 73.4549 1.20136 73.9326 1.16537C74.0641 1.38031 74.2098 1.27297 74.3651 1.29339C74.635 1.30518 74.9096 1.12388 75.1773 1.36068C75.5977 1.329 76.0205 1.32927 76.4409 1.29759C76.5915 1.5111 76.7562 1.40232 76.9115 1.42274C77.1814 1.43452 77.4394 1.2866 77.6855 1.49291C77.9912 1.46987 78.3185 1.47733 78.6242 1.45429C78.7557 1.66924 78.9014 1.5619 79.0567 1.58232C79.2884 1.59698 79.5081 1.45194 79.7542 1.65825C80.0982 1.63233 80.4255 1.63979 80.7694 1.61387C80.8985 1.79688 81.0466 1.72148 81.2018 1.7419C81.3953 1.75944 81.5792 1.64922 81.7656 1.82791C82.014 1.80919 82.2625 1.79047 82.5133 1.80369C82.6448 2.01864 82.7904 1.9113 82.9457 1.93172C83.1392 1.94926 83.3231 1.83904 83.5095 2.01772C83.8152 1.99469 84.1425 2.00215 84.4482 1.97911C84.5773 2.16212 84.7063 2.08816 84.8425 2.11002C84.9762 2.09994 85.1076 2.05792 85.2534 2.20754C85.4445 2.19314 85.6356 2.17874 85.8291 2.19629C86.4071 2.21697 86.9902 2.5585 87.5538 2.38754C87.6829 2.57055 87.8119 2.49659 87.948 2.51845C88.0818 2.50837 88.2156 2.49829 88.3589 2.61597C88.55 2.60158 88.7435 2.61912 88.9346 2.60472C89.4506 2.56584 89.9668 3.04089 90.4683 2.81038C90.5974 2.99338 90.7263 2.91942 90.8625 2.94128C90.9963 2.9312 91.1276 2.88918 91.2734 3.03881C91.4645 3.02441 91.6556 3.01001 91.83 3.02899C91.94 3.21343 92.088 3.13803 92.2242 3.1599C92.358 3.14982 92.4893 3.1078 92.6351 3.25742C92.9026 3.23726 93.237 3.08358 93.4616 3.25939C93.789 3.52381 94.0684 3.4064 94.379 3.44724C94.489 3.63168 94.6203 3.58966 94.735 3.58102C94.8878 3.56951 95.0383 3.52605 95.165 3.67711C95.7693 3.53521 96.3692 4.10032 96.9686 3.89455C97.3296 4.34918 97.7402 3.93277 98.0843 4.16382C98.5072 4.42105 98.9132 4.19773 99.274 4.39539C99.6348 4.59306 99.9859 4.406 100.273 4.64137C100.66 4.93341 101.013 4.77829 101.383 4.84676C101.513 5.02976 101.68 4.95292 101.806 5.10398C102.351 4.93447 102.882 5.3442 103.424 5.3997C103.734 5.44055 104.097 5.41319 104.382 5.61661C104.726 5.84766 105.058 5.66204 105.361 5.86403C105.705 6.09507 106.076 5.90657 106.36 6.11C106.685 6.34248 107.069 6.08866 107.282 6.36173C107.641 6.78442 108.044 6.2722 108.336 6.8284C108.357 6.8589 108.376 6.85746 108.396 6.85602C108.861 6.66033 109.361 6.91179 109.764 7.17046C110.206 7.42625 110.679 7.06941 111.086 7.61698C111.086 7.61698 111.105 7.61554 111.124 7.6141C111.532 7.42272 111.96 7.74383 112.302 7.94293C112.763 8.19728 113.236 7.84044 113.642 8.38801C113.642 8.38801 113.661 8.38657 113.68 8.38513C114.089 8.19375 114.483 8.58162 114.877 8.71252C115.231 8.81437 115.646 8.71881 115.986 9.14294C116.007 9.17344 116.026 9.172 116.046 9.17056C116.418 9.014 116.784 9.27555 117.106 9.47609C117.469 9.7057 117.873 9.45044 118.198 9.93989C118.22 9.97039 118.239 9.96895 118.258 9.96751C118.669 9.80807 119.063 10.1959 119.474 10.2935C119.727 10.3386 120.09 10.3113 120.332 10.7107C120.353 10.7412 120.394 10.7702 120.413 10.7688C120.786 10.6122 121.17 10.8723 121.457 11.1077C121.825 11.4012 122.188 11.1169 122.527 11.541C122.697 11.7531 123.005 11.762 123.199 11.7795C123.55 11.8494 123.942 11.9484 124.248 12.1823C124.594 12.4453 124.95 12.3221 125.316 12.5836C125.54 12.7594 125.875 12.8627 126.171 12.9689C126.467 13.0751 126.795 13.0825 127.05 13.4166C127.072 13.4471 127.112 13.4761 127.132 13.4747C127.466 13.321 127.779 13.6508 128.061 13.8223C128.324 13.9952 128.632 14.0041 128.897 14.209C129.141 14.3833 129.456 14.488 129.753 14.5942C130.049 14.7004 130.376 14.7078 130.632 15.0419C130.653 15.0724 130.694 15.1015 130.713 15.1C131.028 14.9478 131.294 15.4096 131.623 15.449C131.798 15.468 132.056 15.577 132.23 15.853C132.254 15.9154 132.314 15.943 132.333 15.9416C132.648 15.7894 132.945 16.1525 133.224 16.292C133.623 16.4868 134.087 16.5162 134.431 17.0042C134.474 17.0652 134.531 17.0608 134.589 17.0565C134.897 17.0654 135.165 17.3022 135.435 17.571C135.475 17.6 135.516 17.6291 135.554 17.6262C135.881 17.6337 136.156 17.9663 136.457 18.1363C136.696 18.2468 136.914 18.5838 137.196 18.4983C137.382 18.42 137.556 18.696 137.7 18.8137C138.171 19.1958 138.677 19.2861 139.11 19.6711C139.561 20.0546 140.044 20.3395 140.515 20.7216C140.84 20.9541 141.184 21.1851 141.528 21.4162C141.853 21.6486 142.211 21.8144 142.508 22.1775C142.637 22.3605 142.83 22.378 142.974 22.4957C143.445 22.8778 143.915 23.2599 144.384 23.6101C144.792 23.9327 145.192 24.3844 145.634 24.6402C145.875 24.7826 146.119 24.957 146.332 25.23C146.525 25.5045 146.767 25.647 147.005 25.7575C147.125 25.8127 147.156 25.971 147.237 26.0291C147.622 26.2892 147.978 26.6799 148.33 27.0068C148.64 27.3046 148.972 27.6329 149.302 27.9293C149.591 28.1966 149.838 28.6598 150.17 28.7312C150.306 28.7531 150.301 28.9461 150.385 29.0362C151.221 29.6799 151.9 30.7851 152.539 31.8612C152.826 32.3536 153.206 32.8068 153.392 33.4994C153.495 33.8449 153.73 34.1485 153.892 34.5217C154.029 34.8005 154.148 35.1127 154.246 35.3944C154.488 36.0508 154.696 36.7739 154.866 37.4999C155.06 38.2883 155.08 39.0578 155.178 39.8534C155.274 40.6171 155.155 41.3327 154.995 42.0193C154.924 42.3459 155.015 42.7888 154.867 43.1211C154.819 43.2532 154.757 43.4506 154.712 43.6147C154.345 45.1199 153.593 46.1081 153.035 47.3708C152.605 47.5317 152.469 48.2807 152.109 48.5969C151.82 48.8436 151.584 49.2789 151.302 49.6214C151.037 49.9304 150.796 50.3019 150.531 50.611C150.247 50.9215 149.915 51.1071 149.676 51.5106C149.574 51.6789 149.392 51.8211 149.263 51.895C148.895 52.1155 148.635 52.7454 148.191 52.7146C148.127 53.137 147.828 52.9989 147.675 53.2674C147.539 53.5025 147.226 53.4297 147.038 53.733C146.814 54.0712 146.443 54.0027 146.221 54.3728C146.083 54.5759 145.818 54.628 145.651 54.7049C145.333 54.8252 145.066 55.1023 144.75 55.2545C144.378 55.4111 143.957 55.4427 143.664 55.8824C143.647 55.9158 143.628 55.9173 143.609 55.9187C143.177 55.7907 142.799 56.1403 142.494 56.4203C142.078 56.7729 141.555 56.4589 141.235 57.0612C141.219 57.0946 141.199 57.096 141.18 57.0975C140.562 57.0477 140.053 57.6964 139.43 57.5827C139.251 57.7568 139.055 57.7073 138.974 57.9062Z" fill="#2ACC32"/>
</svg>
