<svg width="71" height="71" viewBox="0 0 71 71" fill="none" xmlns="http://www.w3.org/2000/svg">
<path d="M59.4452 1.07878L60.5211 5.09405L16.0718 16.9373L17.1492 20.9582L9.11295 23.1117L10.1897 27.1298L6.17148 28.2066L4.01818 20.1702L0 21.2469L5.38332 41.3377L9.4015 40.261L7.2482 32.2246L11.2664 31.1479L12.3431 35.1661L20.3795 33.0128L21.454 37.0228L30.3234 34.6848C30.8836 35.5143 31.638 36.2024 32.5205 36.6837L17.5679 66.8379H12.6184V70.9978H20.1485L33.4178 44.2378V66.8379H29.2579V70.9978H41.7376V66.8379H37.5777V44.2378L50.8471 70.9978H58.3772V66.8379H53.4276L38.4752 36.6837C40.2957 35.6911 41.5683 33.8176 41.7204 31.64L65.9045 25.1857L66.9818 29.2058L71 28.1291L63.4634 0.00219727L59.4452 1.07878ZM15.2844 30.0713L14.2077 26.0531L18.2259 24.9764L19.3026 28.9946L15.2844 30.0713ZM21.1682 19.8846L53.5585 11.2543L56.7897 23.3129L40.6107 27.6307C39.4814 26.0185 37.6113 24.9614 35.4979 24.9614C32.2409 24.9614 29.5602 27.4704 29.2833 30.6569L24.3997 31.9442L21.1682 19.8846ZM35.4978 33.2814C34.3509 33.2814 33.4178 32.3483 33.4178 31.2014C33.4178 30.0545 34.3509 29.1215 35.4978 29.1215C36.6447 29.1215 37.5777 30.0545 37.5777 31.2014C37.5777 32.3483 36.6447 33.2814 35.4978 33.2814ZM60.8087 22.2403L57.5781 10.1834L61.5978 9.11237L64.828 21.1676L60.8087 22.2403Z" fill="#950195"/>
</svg>
