<svg width="53" height="63" viewBox="0 0 53 63" fill="none" xmlns="http://www.w3.org/2000/svg">
<path d="M1.74104 62.6907C2.20279 62.6907 2.64563 62.5073 2.97214 62.1807C3.29865 61.8542 3.48208 61.4114 3.48208 60.9496V53.9855C3.48946 49.0929 5.07908 44.334 8.01362 40.4192C10.9482 36.5044 15.0702 33.6437 19.7643 32.2643L20.8507 36.6308L17.4382 55.434C17.3831 55.7551 17.4191 56.0852 17.5422 56.3868C17.6653 56.6885 17.8706 56.9495 18.1347 57.1403L25.0988 62.3634C25.4002 62.5894 25.7667 62.7116 26.1434 62.7116C26.5201 62.7116 26.8867 62.5894 27.1881 62.3634L34.1522 57.1403C34.4163 56.9495 34.6216 56.6885 34.7447 56.3868C34.8678 56.0852 34.9038 55.7551 34.8486 55.434L31.4362 36.6308L32.5226 32.2643C37.2063 33.6537 41.316 36.5186 44.2399 40.4326C47.1637 44.3465 48.7453 49.1 48.7491 53.9855V60.9496C48.7491 61.4114 48.9325 61.8542 49.259 62.1807C49.5855 62.5073 50.0284 62.6907 50.4901 62.6907C50.9519 62.6907 51.3947 62.5073 51.7212 62.1807C52.0477 61.8542 52.2312 61.4114 52.2312 60.9496V53.9855C52.2239 48.4623 50.468 43.0832 47.2152 38.6194C43.9624 34.1555 39.3798 30.8363 34.1244 29.1374C37.0743 27.3832 39.3667 24.709 40.6494 21.5256C41.9321 18.3423 42.1342 14.8258 41.2246 11.5164C40.315 8.20709 38.344 5.28792 35.6144 3.20737C32.8848 1.12683 29.5477 0 26.1156 0C22.6835 0 19.3463 1.12683 16.6168 3.20737C13.8872 5.28792 11.9162 8.20709 11.0066 11.5164C10.097 14.8258 10.299 18.3423 11.5817 21.5256C12.8645 24.709 15.1569 27.3832 18.1068 29.1374C12.8513 30.8363 8.26873 34.1555 5.01596 38.6194C1.76319 43.0832 0.00728834 48.4623 0 53.9855V60.9496C0 61.4114 0.18343 61.8542 0.509938 62.1807C0.836447 62.5073 1.27929 62.6907 1.74104 62.6907ZM26.1156 58.7768L21.0596 54.9814L24.089 38.3161H28.1422L31.1716 54.9814L26.1156 58.7768ZM28.2048 34.8341H24.0263L23.2046 31.547C25.1599 31.287 27.141 31.287 29.0962 31.547L28.2048 34.8341ZM13.9283 15.6826C13.9283 13.2722 14.6431 10.9159 15.9822 8.91175C17.3214 6.90756 19.2248 5.34549 21.4517 4.42307C23.6786 3.50064 26.1291 3.25929 28.4932 3.72954C30.8573 4.19979 33.0289 5.36051 34.7333 7.06493C36.4377 8.76935 37.5984 10.9409 38.0687 13.305C38.5389 15.6691 38.2976 18.1196 37.3752 20.3465C36.4527 22.5734 34.8907 24.4768 32.8865 25.816C30.8823 27.1551 28.526 27.8699 26.1156 27.8699C22.8844 27.8662 19.7867 26.581 17.502 24.2963C15.2172 22.0115 13.932 18.9138 13.9283 15.6826ZM42.6555 48.7624C43.1172 48.7624 43.56 48.9458 43.8866 49.2723C44.2131 49.5988 44.3965 50.0417 44.3965 50.5034C44.3965 50.9652 44.2131 51.408 43.8866 51.7345C43.56 52.061 43.1172 52.2444 42.6555 52.2444H37.4323C36.9706 52.2444 36.5277 52.061 36.2012 51.7345C35.8747 51.408 35.6913 50.9652 35.6913 50.5034C35.6913 50.0417 35.8747 49.5988 36.2012 49.2723C36.5277 48.9458 36.9706 48.7624 37.4323 48.7624H42.6555Z" fill="#950195"/>
</svg>
